<?xml version="1.0" encoding="iso-8859-1"?>
<!-- Generator: Adobe Illustrator 19.0.0, SVG Export Plug-In . SVG Version: 6.00 Build 0)  -->
<svg version="1.1" id="Layer_1" xmlns="http://www.w3.org/2000/svg" xmlns:xlink="http://www.w3.org/1999/xlink" x="0px" y="0px"
	 viewBox="0 0 292.178 292.178" style="enable-background:new 0 0 292.178 292.178;" xml:space="preserve">
<g>
	<path style="fill:#51B3DA;" d="M146.089,7.5c-28.359,0-48.013,22.812-61.635,54h123.271C194.102,30.312,174.447,7.5,146.089,7.5z"
		/>
	<path style="fill:#FFDA79;" d="M157.091,235.5v-30h-22v30h-81.34c0.525-45.636,9.171-124.712,30.7-174h123.27
		c29.45,67.42,30.71,174,30.71,174H157.091z"/>
	<circle style="fill:#F59D00;" cx="146.089" cy="138.5" r="40.175"/>
	<circle style="fill:#C7E9F4;" cx="146.089" cy="138.5" r="19.88"/>
	<path style="fill:#FF9392;" d="M157.091,205.5v68.178c0,6.075-4.925,11-11,11l0,0c-6.075,0-11-4.925-11-11V205.5H157.091z"/>
	<path style="fill:#FF9392;" d="M56.651,187.33c-2.67,28.17-2.9,48.17-2.9,48.17l-21.915,40.296
		c-3.079,5.66-11.623,3.823-12.119-2.601C17.92,249.93,21.128,211.021,56.651,187.33z"/>
	<g>
		<path style="fill:#FF9392;" d="M235.527,187.33c2.67,28.17,2.9,48.17,2.9,48.17l21.915,40.296
			c3.079,5.66,11.623,3.823,12.119-2.601C274.258,249.93,271.05,211.021,235.527,187.33z"/>
		<g>
			<path style="fill:#13829B;" d="M193.764,138.5c0-26.288-21.387-47.675-47.675-47.675S98.414,112.212,98.414,138.5
				s21.387,47.675,47.675,47.675S193.764,164.788,193.764,138.5z M146.089,171.175c-18.017,0-32.675-14.658-32.675-32.675
				c0-18.017,14.658-32.675,32.675-32.675s32.675,14.658,32.675,32.675C178.764,156.517,164.106,171.175,146.089,171.175z"/>
			<path style="fill:#13829B;" d="M146.089,111.12c-15.097,0-27.38,12.283-27.38,27.38c0,15.097,12.283,27.38,27.38,27.38
				s27.38-12.283,27.38-27.38C173.469,123.403,161.186,111.12,146.089,111.12z M146.089,150.88c-6.826,0-12.38-5.554-12.38-12.38
				c0-6.826,5.554-12.38,12.38-12.38c6.826,0,12.38,5.554,12.38,12.38C158.469,145.326,152.915,150.88,146.089,150.88z"/>
			<path style="fill:#13829B;" d="M242.724,183.216C235.937,114.587,214.901,0,146.089,0C77.159,0,56.323,114.669,49.52,183.171
				c-36.389,26.318-39.04,67.825-37.28,90.602c1.063,13.772,19.508,17.884,26.186,5.606L58.21,243h69.382v30.678
				c0,10.201,8.299,18.5,18.5,18.5c10.201,0,18.5-8.299,18.5-18.5V243h69.377l19.785,36.379c6.649,12.226,25.116,8.243,26.185-5.607
				C281.697,251.009,279.051,209.537,242.724,183.216z M146.089,15c19.509,0,36.211,13.108,49.75,39h-99.5
				C109.878,28.108,126.58,15,146.089,15z M26.966,269.052c-1.585-31.253,8.553-51.49,20.732-64.427
				c-0.639,9.098-1.21,19.749-1.413,28.904L26.966,269.052z M149.591,273.678c0,1.93-1.57,3.5-3.5,3.5c-1.93,0-3.5-1.57-3.5-3.5
				V235.5V213h7v22.5V273.678z M157.091,198h-22c-4.142,0-7.5,3.358-7.5,7.5V228h-66.13c1.756-48.341,9.624-114.008,27.965-159
				h113.318c18.333,45.042,26.215,110.621,27.973,159h-66.125v-22.5C164.591,201.358,161.233,198,157.091,198z M265.211,269.052
				l-19.313-35.512c-0.087-4.175-0.388-14.608-1.374-28.866C256.683,217.613,266.795,237.839,265.211,269.052z"/>
		</g>
	</g>
</g>
<g>
</g>
<g>
</g>
<g>
</g>
<g>
</g>
<g>
</g>
<g>
</g>
<g>
</g>
<g>
</g>
<g>
</g>
<g>
</g>
<g>
</g>
<g>
</g>
<g>
</g>
<g>
</g>
<g>
</g>
</svg>
